<svg id="svg" xmlns="http://www.w3.org/2000/svg" xmlns:xlink="http://www.w3.org/1999/xlink" width="400" height="227.16049382716048" viewBox="0, 0, 400,227.16049382716048"><g id="svgg"><path id="path0" d="M150.227 15.483 C 149.665 15.596,148.489 15.791,147.614 15.917 C 140.006 17.010,132.979 23.650,130.408 32.175 L 129.659 34.659 129.659 80.114 L 129.659 125.568 130.288 127.841 C 132.513 135.877,138.304 141.834,146.250 144.261 L 148.295 144.886 194.091 144.886 L 239.886 144.886 241.818 144.277 C 247.367 142.525,251.826 139.377,254.475 135.341 C 254.803 134.841,255.244 134.176,255.455 133.864 C 256.146 132.840,257.291 130.168,257.641 128.763 C 257.830 128.006,258.106 126.977,258.254 126.477 C 258.457 125.790,258.523 114.457,258.523 80.114 L 258.523 34.659 257.879 32.386 C 255.481 23.915,248.213 17.002,240.568 15.921 C 239.693 15.797,238.426 15.590,237.753 15.461 C 236.194 15.163,151.713 15.184,150.227 15.483 M206.238 51.667 C 206.933 52.176,206.018 57.204,204.991 58.523 C 204.893 58.648,204.741 59.159,204.652 59.659 C 204.564 60.159,204.351 60.875,204.179 61.250 C 203.891 61.876,203.441 63.298,202.595 66.250 C 202.416 66.875,202.117 67.709,201.930 68.103 C 201.744 68.496,201.591 68.976,201.591 69.169 C 201.591 69.361,201.351 70.215,201.058 71.066 C 200.765 71.917,200.297 73.381,200.018 74.318 C 199.739 75.256,199.274 76.739,198.984 77.614 C 198.695 78.489,198.199 80.023,197.881 81.023 C 196.070 86.731,194.508 91.535,194.334 91.932 C 194.225 92.182,193.757 93.614,193.294 95.114 C 192.832 96.614,192.319 98.199,192.156 98.636 C 191.992 99.074,191.524 100.506,191.117 101.818 C 188.973 108.717,189.227 108.409,185.673 108.409 C 183.329 108.409,182.945 108.354,182.417 107.938 C 181.471 107.194,181.373 107.673,184.323 98.636 C 185.159 96.074,186.278 92.597,186.810 90.909 C 187.894 87.465,188.903 84.298,189.672 81.932 C 189.956 81.057,191.023 77.733,192.044 74.545 C 193.929 68.657,195.063 65.153,196.600 60.455 C 197.070 59.017,197.840 56.635,198.311 55.162 C 199.524 51.370,199.532 51.364,203.014 51.364 C 204.999 51.364,205.944 51.453,206.238 51.667 M178.584 64.281 C 179.267 64.715,179.555 67.663,179.080 69.371 C 178.774 70.473,178.176 70.902,173.750 73.192 C 168.745 75.781,167.216 76.580,166.818 76.815 C 166.631 76.925,165.776 77.355,164.919 77.769 C 161.652 79.349,161.744 79.451,170.455 83.930 C 179.749 88.710,179.098 88.175,179.273 91.177 C 179.452 94.250,179.019 95.682,177.911 95.682 C 177.530 95.682,171.054 92.206,165.227 88.875 C 164.540 88.482,163.670 88.008,163.295 87.822 C 162.920 87.635,161.693 86.974,160.568 86.352 C 159.443 85.730,157.985 84.950,157.329 84.619 C 154.921 83.404,154.318 82.465,154.318 79.932 C 154.318 76.877,154.590 76.494,158.068 74.648 C 159.193 74.051,160.451 73.383,160.863 73.164 C 161.275 72.945,161.735 72.669,161.885 72.550 C 162.036 72.431,163.591 71.566,165.341 70.627 C 169.396 68.452,170.739 67.710,171.023 67.490 C 171.242 67.319,172.837 66.458,175.898 64.858 C 177.372 64.087,178.049 63.942,178.584 64.281 M213.994 65.021 C 214.985 65.533,215.898 66.034,216.023 66.135 C 216.148 66.236,217.631 67.077,219.318 68.006 C 221.006 68.934,224.152 70.683,226.309 71.892 C 228.466 73.101,230.290 74.091,230.361 74.091 C 231.174 74.091,234.737 76.711,234.966 77.478 C 236.044 81.075,235.175 83.053,231.705 84.898 C 230.580 85.496,228.141 86.838,226.286 87.879 C 224.431 88.921,222.871 89.773,222.819 89.773 C 222.767 89.773,220.859 90.811,218.578 92.081 C 211.811 95.848,211.973 95.770,211.286 95.597 C 210.450 95.388,210.226 94.686,210.235 92.315 C 210.247 89.529,210.482 89.212,213.750 87.574 C 214.750 87.073,216.540 86.150,217.727 85.522 C 218.915 84.894,221.283 83.647,222.991 82.750 C 227.436 80.414,227.586 80.025,224.612 78.559 C 223.638 78.079,220.591 76.516,217.841 75.085 C 215.091 73.655,212.534 72.344,212.159 72.171 C 210.586 71.448,210.349 70.920,210.260 67.933 C 210.135 63.747,210.690 63.315,213.994 65.021 M145.106 161.581 C 144.727 161.827,144.165 162.364,143.856 162.775 L 143.295 163.523 143.295 181.250 C 143.295 201.197,143.170 199.754,145.020 201.037 L 145.846 201.609 153.361 201.543 C 163.536 201.454,163.031 201.829,163.141 194.282 C 163.229 188.245,163.459 188.654,159.971 188.644 C 156.943 188.635,157.074 188.469,156.995 192.402 L 156.932 195.568 153.440 195.631 C 151.058 195.674,149.848 195.611,149.633 195.433 C 149.371 195.216,149.318 192.849,149.318 181.364 C 149.318 169.879,149.371 167.512,149.633 167.294 C 149.848 167.116,151.058 167.053,153.440 167.096 L 156.932 167.159 156.995 170.779 C 157.072 175.243,156.892 175.000,160.114 175.000 C 163.475 175.000,163.227 175.500,163.140 168.895 C 163.034 160.820,163.607 161.271,153.336 161.192 C 146.171 161.137,145.761 161.156,145.106 161.581 M200.057 161.287 C 199.838 161.375,199.773 163.014,199.773 168.400 C 199.773 173.723,199.705 175.455,199.489 175.633 C 199.331 175.764,197.638 175.904,195.682 175.949 C 191.768 176.039,190.038 176.576,188.987 178.028 C 188.415 178.820,188.258 197.517,188.815 198.636 C 190.190 201.401,192.269 202.196,195.397 201.156 C 196.116 200.917,197.114 200.652,197.614 200.567 C 198.114 200.483,198.644 200.314,198.792 200.192 C 198.980 200.036,199.182 200.160,199.468 200.610 C 199.692 200.962,199.980 201.325,200.108 201.417 C 200.510 201.705,205.107 201.620,205.409 201.318 C 205.804 200.923,205.804 161.804,205.409 161.409 C 205.139 161.139,200.677 161.037,200.057 161.287 M223.182 161.297 C 222.720 161.466,221.836 162.284,221.513 162.841 C 221.340 163.140,221.211 165.392,221.136 169.427 L 221.023 175.558 220.398 175.733 C 220.054 175.830,219.491 175.988,219.148 176.084 C 218.530 176.258,218.522 176.285,218.457 178.360 C 218.385 180.679,218.544 180.909,220.218 180.909 C 221.151 180.909,221.136 180.736,221.136 191.472 C 221.136 200.238,221.176 201.330,221.496 201.453 C 222.239 201.738,226.525 201.603,226.788 201.286 C 226.963 201.076,227.059 197.909,227.100 191.002 L 227.159 181.023 228.068 180.966 C 228.568 180.935,229.412 180.852,229.943 180.781 L 230.909 180.654 230.909 178.419 C 230.909 175.865,230.946 175.911,228.902 175.906 C 226.936 175.900,227.028 176.153,227.097 170.893 L 227.159 166.250 228.977 166.136 C 229.977 166.074,230.923 165.940,231.080 165.839 C 231.462 165.591,231.472 161.790,231.091 161.409 C 230.812 161.131,223.905 161.033,223.182 161.297 M210.511 166.176 C 209.778 166.545,209.715 171.423,210.440 171.810 C 211.037 172.130,214.612 172.109,215.330 171.782 C 216.073 171.443,216.242 166.923,215.534 166.335 C 215.052 165.934,211.231 165.813,210.511 166.176 M170.114 176.055 C 167.263 176.728,167.187 177.034,167.093 188.361 C 166.978 201.980,166.788 201.595,173.726 201.769 C 180.062 201.928,182.347 201.721,183.261 200.905 L 183.977 200.265 184.047 189.735 C 184.130 177.238,184.150 177.469,182.900 176.641 L 181.966 176.023 176.267 175.985 C 173.133 175.965,170.364 175.996,170.114 176.055 M210.273 176.182 C 209.879 176.575,209.879 200.925,210.273 201.318 C 210.615 201.660,214.843 201.691,215.469 201.356 C 216.121 201.007,216.162 176.719,215.511 176.225 C 214.986 175.827,210.664 175.791,210.273 176.182 M232.358 176.142 C 232.200 176.300,232.176 176.693,232.290 177.229 C 232.614 178.744,233.195 180.996,233.650 182.500 C 233.896 183.313,234.096 184.123,234.094 184.302 C 234.092 184.481,234.291 185.299,234.535 186.120 C 235.037 187.806,235.560 189.893,236.006 191.988 C 236.172 192.769,236.417 193.690,236.551 194.034 C 238.557 199.197,238.582 201.873,236.693 209.091 C 236.480 209.903,236.293 210.977,236.278 211.477 L 236.250 212.386 239.023 212.450 L 241.797 212.514 242.019 211.655 C 242.141 211.182,242.457 209.824,242.721 208.636 C 242.984 207.449,243.301 206.068,243.425 205.568 C 243.548 205.068,243.798 203.863,243.980 202.890 C 244.162 201.916,244.405 200.945,244.519 200.731 C 244.634 200.516,244.855 199.676,245.010 198.864 C 245.165 198.051,245.382 197.211,245.491 196.997 C 245.599 196.783,245.836 195.914,246.016 195.065 C 246.412 193.195,246.956 190.963,247.390 189.432 C 247.568 188.807,247.860 187.631,248.039 186.818 C 248.219 186.006,248.474 185.034,248.605 184.659 C 248.876 183.886,249.450 181.577,249.792 179.886 C 249.919 179.261,250.180 178.260,250.373 177.662 C 250.923 175.956,250.856 175.909,247.876 175.909 C 246.066 175.909,245.219 175.995,245.071 176.193 C 244.685 176.713,244.112 178.956,243.954 180.568 C 243.869 181.443,243.702 182.415,243.584 182.727 C 243.384 183.256,243.035 185.028,242.128 190.114 C 241.690 192.567,241.477 192.885,241.152 191.563 C 241.018 191.016,240.755 190.108,240.567 189.545 C 240.379 188.983,240.224 188.267,240.223 187.955 C 240.222 187.642,240.015 186.415,239.763 185.227 C 239.510 184.040,239.155 182.199,238.973 181.136 C 238.491 178.330,238.158 176.752,237.963 176.364 C 237.749 175.937,232.760 175.740,232.358 176.142 M178.346 181.225 C 178.443 181.322,178.523 184.793,178.523 188.939 L 178.523 196.477 176.056 196.542 C 172.665 196.631,172.955 197.294,172.955 189.432 C 172.955 182.110,173.018 181.424,173.725 181.118 C 174.284 180.877,178.086 180.965,178.346 181.225 M199.500 181.182 C 199.793 181.474,199.908 193.133,199.631 194.513 C 199.341 195.966,195.670 197.186,194.899 196.086 C 194.287 195.212,194.378 181.986,195.000 181.364 C 195.537 180.826,199.004 180.686,199.500 181.182 " stroke="none" fill="#060606" fill-rule="evenodd"></path><path id="path1" d="M0.000 113.636 L 0.000 227.273 200.000 227.273 L 400.000 227.273 400.000 113.636 L 400.000 0.000 200.000 0.000 L 0.000 0.000 0.000 113.636 M237.753 15.461 C 238.426 15.590,239.693 15.797,240.568 15.921 C 248.213 17.002,255.481 23.915,257.879 32.386 L 258.523 34.659 258.523 80.114 C 258.523 114.457,258.457 125.790,258.254 126.477 C 258.106 126.977,257.830 128.006,257.641 128.763 C 257.291 130.168,256.146 132.840,255.455 133.864 C 255.244 134.176,254.803 134.841,254.475 135.341 C 251.826 139.377,247.367 142.525,241.818 144.277 L 239.886 144.886 194.091 144.886 L 148.295 144.886 146.250 144.261 C 138.304 141.834,132.513 135.877,130.288 127.841 L 129.659 125.568 129.659 80.114 L 129.659 34.659 130.408 32.175 C 132.979 23.650,140.006 17.010,147.614 15.917 C 148.489 15.791,149.665 15.596,150.227 15.483 C 151.713 15.184,236.194 15.163,237.753 15.461 M199.687 51.924 C 199.393 52.240,198.796 53.647,198.311 55.162 C 197.840 56.635,197.070 59.017,196.600 60.455 C 195.063 65.153,193.929 68.657,192.044 74.545 C 191.023 77.733,189.956 81.057,189.672 81.932 C 188.903 84.298,187.894 87.465,186.810 90.909 C 186.278 92.597,185.159 96.074,184.323 98.636 C 181.373 107.673,181.471 107.194,182.417 107.938 C 182.945 108.354,183.329 108.409,185.673 108.409 C 189.227 108.409,188.973 108.717,191.117 101.818 C 191.524 100.506,191.992 99.074,192.156 98.636 C 192.319 98.199,192.832 96.614,193.294 95.114 C 193.757 93.614,194.225 92.182,194.334 91.932 C 194.508 91.535,196.070 86.731,197.881 81.023 C 198.199 80.023,198.695 78.489,198.984 77.614 C 199.274 76.739,199.739 75.256,200.018 74.318 C 200.297 73.381,200.765 71.917,201.058 71.066 C 201.351 70.215,201.591 69.361,201.591 69.169 C 201.591 68.976,201.744 68.496,201.930 68.103 C 202.117 67.709,202.416 66.875,202.595 66.250 C 203.441 63.298,203.891 61.876,204.179 61.250 C 204.351 60.875,204.564 60.159,204.652 59.659 C 204.741 59.159,204.893 58.648,204.991 58.523 C 206.018 57.204,206.933 52.176,206.238 51.667 C 205.401 51.055,200.307 51.255,199.687 51.924 M175.898 64.858 C 172.837 66.458,171.242 67.319,171.023 67.490 C 170.739 67.710,169.396 68.452,165.341 70.627 C 163.591 71.566,162.036 72.431,161.885 72.550 C 161.735 72.669,161.275 72.945,160.863 73.164 C 160.451 73.383,159.193 74.051,158.068 74.648 C 154.590 76.494,154.318 76.877,154.318 79.932 C 154.318 82.465,154.921 83.404,157.329 84.619 C 157.985 84.950,159.443 85.730,160.568 86.352 C 161.693 86.974,162.920 87.635,163.295 87.822 C 163.670 88.008,164.540 88.482,165.227 88.875 C 171.054 92.206,177.530 95.682,177.911 95.682 C 179.019 95.682,179.452 94.250,179.273 91.177 C 179.098 88.175,179.749 88.710,170.455 83.930 C 161.744 79.451,161.652 79.349,164.919 77.769 C 165.776 77.355,166.631 76.925,166.818 76.815 C 167.216 76.580,168.745 75.781,173.750 73.192 C 179.111 70.418,179.314 70.202,179.317 67.271 C 179.320 64.034,178.535 63.479,175.898 64.858 M210.549 64.656 C 209.336 66.508,210.373 71.350,212.159 72.171 C 212.534 72.344,215.091 73.655,217.841 75.085 C 220.591 76.516,223.638 78.079,224.612 78.559 C 227.586 80.025,227.436 80.414,222.991 82.750 C 221.283 83.647,218.915 84.894,217.727 85.522 C 216.540 86.150,214.750 87.073,213.750 87.574 C 210.482 89.212,210.247 89.529,210.235 92.315 C 210.226 94.686,210.450 95.388,211.286 95.597 C 211.973 95.770,211.811 95.848,218.578 92.081 C 220.859 90.811,222.767 89.773,222.819 89.773 C 222.871 89.773,224.431 88.921,226.286 87.879 C 228.141 86.838,230.580 85.496,231.705 84.898 C 235.175 83.053,236.044 81.075,234.966 77.478 C 234.737 76.711,231.174 74.091,230.361 74.091 C 230.290 74.091,228.466 73.101,226.309 71.892 C 224.152 70.683,221.006 68.934,219.318 68.006 C 217.631 67.077,216.148 66.236,216.023 66.135 C 214.074 64.566,211.129 63.771,210.549 64.656 M161.504 161.719 C 163.056 162.878,163.061 162.900,163.140 168.895 C 163.227 175.500,163.475 175.000,160.114 175.000 C 156.892 175.000,157.072 175.243,156.995 170.779 L 156.932 167.159 153.440 167.096 C 151.058 167.053,149.848 167.116,149.633 167.294 C 149.371 167.512,149.318 169.879,149.318 181.364 C 149.318 192.849,149.371 195.216,149.633 195.433 C 149.848 195.611,151.058 195.674,153.440 195.631 L 156.932 195.568 156.995 192.402 C 157.074 188.469,156.943 188.635,159.971 188.644 C 163.459 188.654,163.229 188.245,163.141 194.282 C 163.031 201.829,163.536 201.454,153.361 201.543 L 145.846 201.609 145.020 201.037 C 143.170 199.754,143.295 201.197,143.295 181.250 L 143.295 163.523 143.856 162.775 C 145.117 161.094,144.919 161.127,153.336 161.192 C 160.550 161.247,160.904 161.270,161.504 161.719 M205.409 161.409 C 205.804 161.804,205.804 200.923,205.409 201.318 C 205.107 201.620,200.510 201.705,200.108 201.417 C 199.980 201.325,199.692 200.962,199.468 200.610 C 199.182 200.160,198.980 200.036,198.792 200.192 C 198.644 200.314,198.114 200.483,197.614 200.567 C 197.114 200.652,196.116 200.917,195.397 201.156 C 192.269 202.196,190.190 201.401,188.815 198.636 C 188.258 197.517,188.415 178.820,188.987 178.028 C 190.038 176.576,191.768 176.039,195.682 175.949 C 197.638 175.904,199.331 175.764,199.489 175.633 C 199.705 175.455,199.773 173.723,199.773 168.400 C 199.773 163.014,199.838 161.375,200.057 161.287 C 200.677 161.037,205.139 161.139,205.409 161.409 M231.091 161.409 C 231.472 161.790,231.462 165.591,231.080 165.839 C 230.923 165.940,229.977 166.074,228.977 166.136 L 227.159 166.250 227.097 170.893 C 227.028 176.153,226.936 175.900,228.902 175.906 C 230.946 175.911,230.909 175.865,230.909 178.419 L 230.909 180.654 229.943 180.781 C 229.412 180.852,228.568 180.935,228.068 180.966 L 227.159 181.023 227.100 191.002 C 227.059 197.909,226.963 201.076,226.788 201.286 C 226.525 201.603,222.239 201.738,221.496 201.453 C 221.176 201.330,221.136 200.238,221.136 191.472 C 221.136 180.736,221.151 180.909,220.218 180.909 C 218.544 180.909,218.385 180.679,218.457 178.360 C 218.522 176.285,218.530 176.258,219.148 176.084 C 219.491 175.988,220.054 175.830,220.398 175.733 L 221.023 175.558 221.136 169.427 C 221.211 165.392,221.340 163.140,221.513 162.841 C 221.836 162.284,222.720 161.466,223.182 161.297 C 223.905 161.033,230.812 161.131,231.091 161.409 M215.534 166.335 C 216.242 166.923,216.073 171.443,215.330 171.782 C 214.612 172.109,211.037 172.130,210.440 171.810 C 209.715 171.423,209.778 166.545,210.511 166.176 C 211.231 165.813,215.052 165.934,215.534 166.335 M182.900 176.641 C 184.150 177.469,184.130 177.238,184.047 189.735 L 183.977 200.265 183.261 200.905 C 182.347 201.721,180.062 201.928,173.726 201.769 C 166.788 201.595,166.978 201.980,167.093 188.361 C 167.181 177.763,167.240 177.377,168.893 176.547 C 170.072 175.955,170.197 175.945,176.267 175.985 L 181.966 176.023 182.900 176.641 M215.511 176.225 C 216.162 176.719,216.121 201.007,215.469 201.356 C 214.843 201.691,210.615 201.660,210.273 201.318 C 209.879 200.925,209.879 176.575,210.273 176.182 C 210.664 175.791,214.986 175.827,215.511 176.225 M237.963 176.364 C 238.158 176.752,238.491 178.330,238.973 181.136 C 239.155 182.199,239.510 184.040,239.763 185.227 C 240.015 186.415,240.222 187.642,240.223 187.955 C 240.224 188.267,240.379 188.983,240.567 189.545 C 240.755 190.108,241.018 191.016,241.152 191.563 C 241.477 192.885,241.690 192.567,242.128 190.114 C 243.035 185.028,243.384 183.256,243.584 182.727 C 243.702 182.415,243.869 181.443,243.954 180.568 C 244.112 178.956,244.685 176.713,245.071 176.193 C 245.219 175.995,246.066 175.909,247.876 175.909 C 250.856 175.909,250.923 175.956,250.373 177.662 C 250.180 178.260,249.919 179.261,249.792 179.886 C 249.450 181.577,248.876 183.886,248.605 184.659 C 248.474 185.034,248.219 186.006,248.039 186.818 C 247.860 187.631,247.568 188.807,247.390 189.432 C 246.956 190.963,246.412 193.195,246.016 195.065 C 245.836 195.914,245.599 196.783,245.491 196.997 C 245.382 197.211,245.165 198.051,245.010 198.864 C 244.855 199.676,244.634 200.516,244.519 200.731 C 244.405 200.945,244.162 201.916,243.980 202.890 C 243.798 203.863,243.548 205.068,243.425 205.568 C 243.301 206.068,242.984 207.449,242.721 208.636 C 242.457 209.824,242.141 211.182,242.019 211.655 L 241.797 212.514 239.023 212.450 L 236.250 212.386 236.278 211.477 C 236.293 210.977,236.480 209.903,236.693 209.091 C 238.582 201.873,238.557 199.197,236.551 194.034 C 236.417 193.690,236.172 192.769,236.006 191.988 C 235.560 189.893,235.037 187.806,234.535 186.120 C 234.291 185.299,234.092 184.481,234.094 184.302 C 234.096 184.123,233.896 183.313,233.650 182.500 C 233.195 180.996,232.614 178.744,232.290 177.229 C 232.024 175.982,232.243 175.887,235.198 175.959 C 237.231 176.009,237.829 176.097,237.963 176.364 M173.725 181.118 C 173.018 181.424,172.955 182.110,172.955 189.432 C 172.955 197.294,172.665 196.631,176.056 196.542 L 178.523 196.477 178.523 188.939 C 178.523 184.793,178.443 181.322,178.346 181.225 C 178.086 180.965,174.284 180.877,173.725 181.118 M195.000 181.364 C 194.378 181.986,194.287 195.212,194.899 196.086 C 195.670 197.186,199.341 195.966,199.631 194.513 C 199.908 193.133,199.793 181.474,199.500 181.182 C 199.004 180.686,195.537 180.826,195.000 181.364 " stroke="none" fill="#fbfbfb" fill-rule="evenodd"></path></g></svg>