<svg id="svg" xmlns="http://www.w3.org/2000/svg" xmlns:xlink="http://www.w3.org/1999/xlink" width="400" height="167.87564766839378" viewBox="0, 0, 400,167.87564766839378"><g id="svgg"><path id="path0" d="M40.722 23.014 C 38.767 23.273,35.508 23.960,34.845 24.255 C 33.571 24.819,30.982 26.100,30.898 26.207 C 30.852 26.266,30.487 26.519,30.087 26.770 C 29.413 27.192,26.449 30.078,25.559 31.178 C 24.714 32.222,22.894 35.704,22.746 36.559 C 22.685 36.909,22.435 37.725,22.191 38.371 L 21.746 39.547 21.746 82.116 L 21.746 124.685 22.126 125.662 C 22.335 126.199,22.576 126.955,22.663 127.341 C 22.961 128.668,24.756 132.089,25.807 133.333 C 26.709 134.400,29.012 136.682,29.792 137.280 C 30.366 137.721,30.757 137.959,32.326 138.827 C 33.327 139.381,34.625 139.916,35.516 140.141 C 36.071 140.282,36.788 140.526,37.112 140.685 C 38.024 141.133,122.684 141.133,123.594 140.684 C 123.917 140.525,124.659 140.274,125.243 140.126 C 125.827 139.978,126.545 139.719,126.838 139.551 C 127.132 139.383,127.561 139.191,127.792 139.125 C 128.023 139.058,128.438 138.841,128.715 138.642 C 128.992 138.443,129.446 138.170,129.723 138.034 C 131.269 137.280,135.017 133.505,136.018 131.695 C 136.260 131.257,136.543 130.747,136.646 130.563 C 137.313 129.365,137.884 128.043,138.035 127.344 C 138.132 126.898,138.380 126.117,138.585 125.609 L 138.959 124.685 138.959 82.116 L 138.959 39.547 138.519 38.455 C 138.277 37.855,138.027 37.010,137.964 36.578 C 137.902 36.146,137.701 35.603,137.519 35.371 C 137.337 35.140,137.075 34.628,136.936 34.234 C 136.797 33.840,136.581 33.401,136.456 33.258 C 136.331 33.115,136.095 32.733,135.931 32.410 C 135.284 31.134,132.121 27.778,130.735 26.898 C 130.363 26.661,129.983 26.388,129.891 26.290 C 129.695 26.083,127.318 24.909,125.861 24.300 C 125.306 24.068,123.795 23.663,122.502 23.400 L 120.151 22.922 80.940 22.902 C 59.374 22.890,41.276 22.941,40.722 23.014 M170.865 48.876 C 169.683 49.137,168.270 49.954,167.602 50.763 C 166.438 52.171,166.499 50.428,166.499 82.452 C 166.499 113.578,166.481 112.928,167.366 113.812 C 167.577 114.024,167.830 114.345,167.926 114.526 C 168.023 114.707,168.686 115.140,169.400 115.488 L 170.697 116.121 182.955 116.121 L 195.214 116.121 196.052 115.659 C 196.513 115.405,197.015 115.197,197.167 115.197 C 197.997 115.197,198.979 113.623,199.498 111.459 C 200.006 109.342,200.014 93.812,199.507 93.541 C 199.159 93.354,190.325 93.288,189.854 93.469 C 189.618 93.559,189.589 94.285,189.589 99.913 C 189.589 105.608,189.560 106.280,189.311 106.487 C 188.902 106.826,177.009 106.826,176.600 106.487 C 176.344 106.274,176.322 104.389,176.322 82.441 L 176.322 58.625 176.696 58.364 C 177.256 57.971,188.655 57.971,189.215 58.364 L 189.589 58.625 189.589 64.879 C 189.589 69.520,189.641 71.185,189.790 71.335 C 190.086 71.631,199.149 71.621,199.554 71.325 C 199.823 71.128,199.840 70.500,199.795 62.550 L 199.745 53.988 199.318 52.631 C 198.850 51.142,198.009 49.940,197.313 49.764 C 197.082 49.706,196.516 49.461,196.054 49.220 L 195.214 48.783 183.375 48.755 C 176.864 48.740,171.234 48.795,170.865 48.876 M262.338 48.960 L 261.965 49.221 261.965 60.709 C 261.965 71.894,261.956 72.201,261.640 72.370 C 261.440 72.477,259.521 72.548,256.644 72.555 C 249.233 72.573,246.516 73.157,244.300 75.210 C 242.904 76.503,242.979 75.422,243.031 93.535 C 243.081 110.977,243.108 111.478,244.074 112.444 C 244.238 112.608,244.443 112.944,244.529 113.191 C 244.714 113.723,246.216 114.992,246.836 115.141 C 247.076 115.198,247.590 115.429,247.981 115.654 C 249.003 116.244,251.739 116.288,252.965 115.733 C 253.418 115.528,254.098 115.319,254.476 115.268 C 255.650 115.110,256.828 114.820,257.179 114.603 C 257.364 114.489,258.044 114.303,258.690 114.191 C 259.337 114.079,260.039 113.919,260.251 113.836 C 261.465 113.363,261.965 113.688,261.965 114.950 C 261.965 116.181,262.057 116.205,266.805 116.205 C 270.224 116.205,270.992 116.160,271.469 115.934 L 272.040 115.663 272.040 82.424 L 272.040 49.185 271.458 48.942 C 270.575 48.573,262.869 48.588,262.338 48.960 M302.595 48.854 C 301.360 49.096,300.116 49.998,299.275 51.262 L 298.489 52.445 298.405 62.452 L 298.321 72.460 296.501 72.508 C 295.190 72.542,294.567 72.630,294.276 72.821 L 293.871 73.086 293.871 76.756 C 293.871 81.120,293.675 80.805,296.474 80.937 L 298.321 81.024 298.364 98.308 C 298.403 114.099,298.430 115.619,298.683 115.899 C 299.079 116.336,306.830 116.366,307.741 115.934 L 308.312 115.663 308.312 98.465 L 308.312 81.268 308.743 81.104 C 308.980 81.014,310.116 80.940,311.267 80.940 C 312.716 80.940,313.540 80.865,313.943 80.697 L 314.526 80.454 314.526 76.755 L 314.526 73.056 314.030 72.800 C 313.661 72.609,312.980 72.544,311.354 72.544 C 310.155 72.544,308.980 72.470,308.743 72.380 L 308.312 72.217 308.312 64.819 L 308.312 57.422 308.743 57.259 C 308.980 57.169,310.382 57.095,311.858 57.095 C 313.936 57.095,314.654 57.037,315.038 56.839 L 315.533 56.582 315.533 52.884 L 315.533 49.185 314.951 48.942 C 314.327 48.681,303.857 48.607,302.595 48.854 M91.180 56.022 C 92.197 56.428,92.073 57.607,90.598 61.545 C 90.391 62.099,90.127 62.952,90.013 63.440 C 89.898 63.929,89.670 64.609,89.506 64.952 C 89.342 65.295,89.156 65.840,89.092 66.163 C 89.028 66.486,88.803 67.242,88.592 67.842 C 87.814 70.058,87.460 71.152,87.054 72.606 C 86.826 73.424,86.542 74.293,86.423 74.537 C 86.305 74.780,86.109 75.395,85.988 75.903 C 85.866 76.411,85.710 76.902,85.641 76.994 C 85.572 77.086,85.311 77.877,85.061 78.751 C 84.812 79.625,84.534 80.479,84.443 80.649 C 84.352 80.819,84.126 81.539,83.940 82.249 C 83.754 82.959,83.532 83.623,83.448 83.725 C 83.363 83.827,83.149 84.470,82.971 85.154 C 82.794 85.838,82.491 86.831,82.298 87.359 C 82.106 87.888,81.948 88.430,81.948 88.563 C 81.948 88.696,81.793 89.166,81.605 89.606 C 81.416 90.047,81.123 90.903,80.953 91.509 C 80.784 92.115,80.526 92.951,80.379 93.367 C 80.232 93.783,79.796 95.143,79.409 96.390 C 79.022 97.636,78.311 99.866,77.830 101.343 C 77.348 102.821,76.780 104.625,76.566 105.352 C 76.299 106.259,76.010 106.852,75.642 107.241 L 75.107 107.809 72.585 107.809 C 68.547 107.809,68.524 107.740,70.500 101.595 C 70.782 100.718,71.158 99.614,71.335 99.142 C 71.513 98.670,71.708 98.021,71.768 97.699 C 71.828 97.376,72.018 96.818,72.190 96.457 C 72.362 96.097,72.633 95.273,72.792 94.626 C 72.951 93.980,73.142 93.375,73.217 93.283 C 73.291 93.191,73.478 92.662,73.631 92.107 C 73.785 91.553,74.052 90.722,74.225 90.260 C 74.398 89.798,74.660 88.935,74.806 88.341 C 74.952 87.748,75.139 87.180,75.222 87.080 C 75.305 86.980,75.525 86.317,75.711 85.607 C 75.897 84.897,76.126 84.173,76.220 83.997 C 76.314 83.821,76.551 83.082,76.746 82.355 C 76.941 81.627,77.165 80.954,77.244 80.859 C 77.323 80.763,77.539 80.119,77.723 79.427 C 77.907 78.736,78.211 77.716,78.398 77.162 C 79.233 74.693,79.598 73.557,79.907 72.460 C 80.089 71.814,80.358 70.945,80.504 70.529 C 80.824 69.619,81.701 66.896,82.452 64.484 C 82.754 63.514,83.169 62.229,83.375 61.629 C 83.581 61.029,83.965 59.876,84.227 59.068 C 84.972 56.777,85.296 56.203,85.978 55.971 C 86.889 55.660,90.362 55.694,91.180 56.022 M279.849 56.036 C 278.908 56.187,278.925 56.094,278.928 61.104 C 278.929 63.730,278.999 65.852,279.089 65.995 C 279.286 66.306,287.780 66.467,288.550 66.175 L 289.001 66.003 289.001 61.234 C 289.001 57.004,288.969 56.438,288.723 56.234 C 288.445 56.002,281.078 55.838,279.849 56.036 M66.197 67.632 C 66.869 68.409,67.041 70.543,66.566 72.197 C 66.278 73.202,65.784 73.629,63.728 74.651 C 63.266 74.880,62.586 75.236,62.217 75.440 C 60.594 76.340,58.004 77.718,55.751 78.881 C 50.630 81.524,50.594 81.269,56.507 84.306 C 66.735 89.559,66.166 89.215,66.530 90.369 C 66.948 91.693,66.933 94.561,66.503 95.508 C 66.140 96.308,65.295 96.502,64.524 95.962 C 64.321 95.820,63.756 95.491,63.269 95.231 C 62.783 94.971,62.007 94.547,61.545 94.288 C 61.083 94.028,60.280 93.583,59.761 93.298 C 59.242 93.012,58.373 92.524,57.830 92.212 C 57.287 91.901,56.427 91.425,55.919 91.155 C 55.411 90.885,54.576 90.423,54.063 90.127 C 52.878 89.443,49.921 87.808,48.007 86.778 C 44.308 84.788,44.123 84.555,44.110 81.864 C 44.100 79.613,44.982 77.750,46.059 77.750 C 46.144 77.750,46.980 77.318,47.918 76.791 C 48.855 76.263,49.906 75.677,50.254 75.489 C 50.601 75.301,51.810 74.629,52.940 73.997 C 54.071 73.365,55.676 72.485,56.507 72.043 C 57.338 71.601,58.585 70.918,59.278 70.525 C 59.971 70.132,60.877 69.628,61.293 69.404 C 62.022 69.012,62.742 68.615,63.980 67.920 C 65.054 67.318,65.837 67.216,66.197 67.632 M97.817 67.870 C 98.371 68.162,99.051 68.536,99.328 68.701 C 99.605 68.866,100.694 69.478,101.747 70.059 C 102.801 70.641,104.085 71.355,104.602 71.646 C 105.119 71.938,105.860 72.329,106.250 72.516 C 106.639 72.703,107.054 72.942,107.173 73.047 C 107.424 73.269,108.508 73.857,109.824 74.486 C 110.332 74.729,110.785 74.984,110.831 75.054 C 110.877 75.123,111.784 75.646,112.846 76.217 C 117.818 78.887,117.884 78.962,117.884 81.932 C 117.884 84.289,117.565 84.779,115.184 86.080 C 113.840 86.813,113.409 87.054,111.545 88.109 C 111.106 88.357,110.321 88.792,109.799 89.074 C 107.286 90.438,101.105 93.848,100.269 94.332 C 99.752 94.633,98.854 95.115,98.274 95.405 C 97.694 95.695,97.180 95.998,97.131 96.077 C 97.082 96.157,96.746 96.222,96.384 96.222 C 95.502 96.222,95.222 95.674,95.094 93.697 C 94.912 90.888,95.263 90.388,98.643 88.633 C 101.284 87.262,101.865 86.956,103.191 86.237 C 103.837 85.886,105.568 84.984,107.036 84.233 C 110.668 82.374,110.846 81.894,108.343 80.710 C 107.633 80.374,105.844 79.459,104.366 78.676 C 102.888 77.893,100.772 76.793,99.664 76.230 C 95.323 74.027,95.305 74.009,95.125 71.610 C 94.823 67.577,95.493 66.646,97.817 67.870 M211.839 72.786 C 209.924 73.154,209.022 73.708,208.113 75.075 L 207.305 76.291 207.305 94.443 L 207.305 112.594 207.943 113.716 C 209.337 116.169,210.305 116.360,221.411 116.364 C 233.533 116.369,234.694 116.049,235.498 112.490 C 235.938 110.543,235.895 77.830,235.451 76.203 C 234.921 74.265,233.359 73.065,230.898 72.707 C 229.421 72.492,213.016 72.560,211.839 72.786 M279.723 72.833 L 279.261 73.126 279.261 94.394 L 279.261 115.663 279.864 115.949 C 280.663 116.328,288.257 116.278,288.723 115.890 C 289.151 115.535,289.151 73.214,288.724 72.859 C 288.253 72.468,280.336 72.446,279.723 72.833 M317.272 72.790 C 316.873 73.070,317.073 75.157,317.597 76.171 C 317.735 76.439,317.940 77.261,318.052 77.997 C 318.163 78.733,318.405 79.716,318.590 80.180 C 318.775 80.644,319.029 81.658,319.156 82.432 C 319.283 83.207,319.495 84.006,319.627 84.208 C 319.759 84.410,319.993 85.243,320.146 86.059 C 320.299 86.875,320.608 88.107,320.833 88.797 C 321.058 89.487,321.243 90.274,321.243 90.546 C 321.243 90.818,321.427 91.589,321.652 92.259 C 321.877 92.929,322.184 94.136,322.335 94.941 C 322.486 95.745,322.719 96.668,322.854 96.991 C 322.989 97.314,323.212 98.224,323.350 99.014 C 323.488 99.804,323.711 100.664,323.847 100.926 C 323.982 101.188,324.210 102.079,324.353 102.906 C 324.495 103.733,324.752 104.702,324.923 105.059 C 325.094 105.417,325.287 106.125,325.352 106.633 C 325.481 107.652,325.768 108.808,325.957 109.068 C 326.024 109.160,326.205 109.910,326.359 110.734 C 326.512 111.558,326.829 112.800,327.062 113.495 C 327.611 115.130,327.586 117.360,327.005 118.556 C 326.803 118.971,326.518 119.900,326.372 120.620 C 326.226 121.339,326.035 122.057,325.947 122.215 C 325.668 122.716,325.273 124.092,325.272 124.565 C 325.272 124.816,325.130 125.252,324.958 125.535 C 324.785 125.818,324.517 126.677,324.362 127.444 C 324.206 128.211,323.979 129.000,323.857 129.197 C 323.467 129.827,323.218 131.152,323.440 131.419 C 323.698 131.730,332.233 131.766,332.907 131.458 C 333.346 131.258,333.436 131.034,333.833 129.135 C 333.940 128.627,334.133 127.947,334.263 127.624 C 334.392 127.301,334.616 126.443,334.761 125.717 C 334.905 124.992,335.139 124.123,335.280 123.786 C 335.422 123.449,335.679 122.494,335.852 121.662 C 336.025 120.831,336.278 119.886,336.414 119.562 C 336.551 119.238,336.748 118.483,336.852 117.883 C 336.956 117.283,337.187 116.415,337.364 115.953 C 337.542 115.491,337.811 114.433,337.962 113.602 C 338.113 112.771,338.291 112.015,338.358 111.923 C 338.549 111.660,338.836 110.502,338.961 109.488 C 339.024 108.980,339.216 108.242,339.387 107.849 C 339.557 107.455,339.816 106.435,339.962 105.582 C 340.108 104.728,340.336 103.798,340.469 103.514 C 340.601 103.229,340.822 102.355,340.959 101.571 C 341.096 100.787,341.353 99.735,341.532 99.233 C 341.710 98.731,341.950 97.867,342.063 97.313 C 342.177 96.759,342.451 95.763,342.672 95.101 C 342.892 94.438,343.073 93.673,343.073 93.401 C 343.073 93.129,343.257 92.342,343.482 91.652 C 343.708 90.962,344.017 89.725,344.171 88.902 C 344.324 88.079,344.502 87.330,344.566 87.238 C 344.792 86.911,345.060 85.882,345.172 84.908 C 345.234 84.366,345.425 83.597,345.596 83.199 C 345.766 82.801,346.025 81.784,346.171 80.940 C 346.317 80.095,346.556 79.172,346.703 78.888 C 346.850 78.604,347.079 77.692,347.213 76.860 C 347.347 76.029,347.567 75.135,347.702 74.873 C 348.840 72.673,348.520 72.514,343.091 72.576 C 337.750 72.637,338.140 72.479,337.795 74.732 C 337.661 75.607,337.434 76.700,337.292 77.162 C 337.149 77.624,336.907 78.946,336.755 80.101 C 336.602 81.255,336.378 82.397,336.257 82.637 C 336.136 82.878,335.953 83.747,335.850 84.568 C 335.748 85.390,335.506 86.629,335.314 87.322 C 335.121 88.014,334.858 89.374,334.729 90.344 C 334.601 91.314,334.417 92.372,334.321 92.695 C 333.946 93.963,333.836 94.513,333.668 95.949 C 333.518 97.225,332.732 99.457,332.217 100.070 C 332.072 100.242,331.985 99.852,331.737 97.893 C 331.591 96.743,331.328 95.348,331.152 94.794 C 330.976 94.240,330.786 93.333,330.728 92.779 C 330.601 91.544,330.304 90.020,330.118 89.646 C 330.042 89.493,329.864 88.587,329.722 87.631 C 329.580 86.676,329.281 85.101,329.057 84.131 C 328.522 81.818,328.024 79.295,327.630 76.910 C 326.848 72.175,327.337 72.544,321.845 72.544 C 318.410 72.544,317.558 72.590,317.272 72.790 M261.640 81.114 C 262.005 81.310,262.162 103.910,261.804 104.851 C 261.698 105.131,261.290 105.449,260.593 105.794 C 260.015 106.081,259.464 106.377,259.368 106.453 C 259.272 106.528,258.892 106.685,258.522 106.802 C 258.153 106.919,257.526 107.202,257.130 107.431 C 255.922 108.131,254.587 107.938,253.629 106.924 L 252.897 106.149 252.897 94.385 L 252.897 82.622 253.617 81.891 C 254.014 81.489,254.448 81.116,254.583 81.063 C 255.030 80.887,261.301 80.933,261.640 81.114 M225.855 81.433 C 226.121 81.930,226.094 107.340,225.827 107.607 C 225.534 107.900,217.475 107.892,217.073 107.598 C 216.660 107.296,216.714 81.534,217.128 81.273 C 217.679 80.925,225.661 81.072,225.855 81.433 " stroke="none" fill="#060606" fill-rule="evenodd"></path><path id="path1" d="M0.000 13.602 L 0.000 27.204 14.697 27.204 L 29.394 27.204 30.104 26.759 C 30.495 26.514,30.852 26.266,30.898 26.207 C 30.982 26.100,33.571 24.819,34.845 24.255 C 35.538 23.947,38.824 23.267,40.890 23.003 C 41.537 22.920,47.185 22.849,53.442 22.845 L 64.819 22.838 64.819 11.419 L 64.819 0.000 32.410 0.000 L 0.000 0.000 0.000 13.602 " stroke="none" fill="#fbfbfb" fill-rule="evenodd"></path></g></svg>