<svg id="svg" xmlns="http://www.w3.org/2000/svg" xmlns:xlink="http://www.w3.org/1999/xlink" width="400" height="237" viewBox="0, 0, 400,237"><g id="svgg"><path id="path0" d="M146.443 19.937 C 144.895 20.173,143.278 20.531,142.851 20.734 C 142.424 20.937,141.975 21.103,141.853 21.103 C 141.498 21.103,137.953 23.017,137.065 23.689 C 132.282 27.304,129.524 31.286,128.053 36.698 L 127.327 39.368 127.327 85.195 L 127.327 131.023 127.939 133.380 C 129.063 137.705,130.815 140.777,133.961 143.941 C 135.746 145.736,136.620 146.439,138.945 147.948 C 139.992 148.628,142.357 149.548,144.685 150.183 L 146.952 150.800 192.531 150.800 L 238.110 150.800 240.377 150.183 C 242.706 149.548,245.071 148.628,246.117 147.948 C 248.402 146.465,249.313 145.738,251.075 143.990 C 254.161 140.930,256.027 137.660,257.128 133.384 L 257.736 131.023 257.736 85.157 L 257.736 39.291 257.005 36.636 C 255.546 31.333,252.646 27.168,247.998 23.696 C 246.867 22.852,244.289 21.475,243.154 21.109 C 242.632 20.941,242.095 20.717,241.960 20.611 C 240.362 19.354,154.264 18.747,146.443 19.937 M204.620 56.192 C 205.686 56.763,205.256 58.893,202.489 66.746 C 202.259 67.398,201.636 69.318,201.104 71.014 C 198.433 79.519,197.906 81.187,197.058 83.817 C 196.553 85.382,195.481 88.743,194.676 91.286 C 193.871 93.829,193.069 96.283,192.894 96.740 C 192.719 97.196,191.968 99.490,191.225 101.838 C 190.482 104.185,189.734 106.479,189.563 106.935 C 189.392 107.392,188.914 108.863,188.501 110.204 C 187.444 113.638,187.225 113.811,183.970 113.811 C 180.130 113.811,179.613 113.177,180.704 109.797 C 180.981 108.941,181.610 107.012,182.102 105.513 C 183.121 102.409,185.639 94.538,187.791 87.730 C 189.628 81.917,191.539 75.977,192.901 71.844 C 193.481 70.083,194.238 67.736,194.583 66.627 C 194.928 65.519,195.345 64.238,195.510 63.782 C 195.675 63.325,196.146 61.885,196.556 60.581 C 197.573 57.343,197.948 56.524,198.543 56.236 C 199.198 55.919,204.044 55.884,204.620 56.192 M177.023 69.260 C 177.600 69.897,177.681 73.755,177.138 74.771 C 176.678 75.633,176.440 75.768,163.723 82.379 C 159.624 84.510,159.434 84.282,169.648 89.511 C 177.829 93.698,177.376 93.284,177.542 96.737 C 177.772 101.539,177.151 101.725,171.480 98.554 C 169.300 97.335,166.503 95.781,165.264 95.101 C 164.025 94.421,162.851 93.771,162.656 93.658 C 162.460 93.544,160.486 92.471,158.269 91.275 C 152.006 87.894,151.392 86.973,152.489 82.614 C 152.818 81.308,154.621 80.031,158.862 78.102 C 159.318 77.894,159.852 77.586,160.047 77.417 C 160.243 77.248,161.257 76.659,162.300 76.107 C 164.887 74.738,166.609 73.797,171.215 71.232 C 173.380 70.027,175.407 68.992,175.720 68.933 C 176.033 68.874,176.353 68.811,176.430 68.793 C 176.508 68.776,176.775 68.986,177.023 69.260 M212.203 69.584 C 212.424 69.783,212.690 69.947,212.794 69.947 C 212.899 69.947,214.278 70.684,215.858 71.586 C 217.438 72.487,219.212 73.483,219.798 73.798 C 220.385 74.114,221.292 74.621,221.814 74.926 C 223.689 76.022,224.671 76.576,225.370 76.930 C 226.277 77.390,228.536 78.632,231.467 80.284 C 234.139 81.790,234.125 81.760,233.989 85.437 C 233.886 88.235,233.968 88.139,229.671 90.491 C 227.827 91.501,225.785 92.626,225.133 92.992 C 224.481 93.358,223.628 93.809,223.237 93.994 C 222.845 94.179,221.365 94.979,219.947 95.772 C 218.529 96.565,217.339 97.214,217.302 97.214 C 217.265 97.214,215.917 97.974,214.308 98.903 C 209.593 101.625,208.892 101.452,208.892 97.570 C 208.892 94.540,208.920 94.507,213.595 92.073 C 214.985 91.348,217.190 90.193,218.494 89.504 C 219.798 88.816,221.719 87.810,222.762 87.268 C 226.971 85.084,227.537 85.615,213.278 78.359 C 208.951 76.158,208.892 76.076,208.892 72.312 C 208.892 69.426,208.978 69.155,209.959 68.950 C 210.589 68.819,211.706 69.134,212.203 69.584 M157.439 164.755 C 156.331 165.509,154.592 166.705,153.575 167.414 C 152.558 168.122,151.394 168.884,150.988 169.106 C 150.582 169.328,150.186 169.595,150.110 169.699 C 149.976 169.881,149.322 170.321,147.019 171.778 C 146.439 172.145,145.852 172.540,145.715 172.655 C 145.578 172.770,144.932 173.206,144.280 173.624 C 143.628 174.042,142.988 174.467,142.857 174.569 C 141.362 175.736,140.746 176.171,140.589 176.171 C 140.486 176.171,140.260 176.306,140.088 176.472 C 139.916 176.638,139.188 177.137,138.471 177.581 C 136.080 179.062,136.100 179.028,136.100 181.623 C 136.100 184.430,135.381 183.662,142.412 188.371 C 143.961 189.409,145.507 190.476,145.847 190.742 C 146.188 191.009,146.668 191.363,146.914 191.529 C 147.745 192.090,148.981 192.885,149.450 193.162 C 149.706 193.313,149.981 193.526,150.062 193.636 C 150.185 193.805,153.113 195.844,154.945 197.036 C 155.245 197.232,156.376 197.994,157.458 198.731 C 160.130 200.550,160.047 200.649,160.047 195.633 L 160.047 191.434 159.395 190.838 C 159.037 190.510,158.156 189.857,157.439 189.386 C 156.722 188.916,155.282 187.932,154.238 187.201 C 153.195 186.470,151.595 185.369,150.682 184.756 C 149.769 184.142,148.896 183.533,148.741 183.403 C 148.587 183.272,148.027 182.851,147.496 182.468 C 146.288 181.594,146.283 181.630,147.777 180.521 C 149.116 179.527,149.339 179.370,152.678 177.084 C 153.888 176.256,155.534 175.123,156.336 174.568 C 157.138 174.012,158.062 173.379,158.388 173.160 C 160.109 172.008,160.047 172.200,160.047 167.969 C 160.047 162.640,160.225 162.859,157.439 164.755 M198.861 168.405 C 198.505 168.670,198.455 169.465,198.401 175.815 L 198.340 182.928 194.784 183.055 C 190.400 183.211,188.587 183.754,187.635 185.192 L 187.053 186.071 187.125 195.762 C 187.195 205.252,187.207 205.478,187.734 206.641 C 188.705 208.784,191.301 209.686,193.835 208.762 C 194.357 208.572,195.470 208.253,196.308 208.054 L 197.832 207.693 198.488 208.411 C 199.142 209.128,202.681 209.495,204.011 208.985 C 204.585 208.764,204.585 168.473,204.011 168.253 C 203.297 167.979,199.276 168.098,198.861 168.405 M221.895 168.470 C 220.309 169.332,220.166 169.969,220.036 176.760 L 219.917 182.921 219.016 183.067 C 217.719 183.277,217.637 183.448,217.714 185.795 L 217.783 187.908 218.850 188.165 L 219.917 188.422 220.036 198.716 L 220.154 209.010 222.999 209.010 L 225.845 209.010 225.963 198.696 L 226.082 188.382 227.732 188.311 C 229.951 188.215,229.994 188.161,229.994 185.512 C 229.994 182.975,230.119 183.101,227.504 182.989 L 226.082 182.928 226.014 178.542 C 225.925 172.718,225.786 173.088,228.054 173.088 C 230.383 173.088,230.468 173.000,230.468 170.599 C 230.468 169.421,230.358 168.568,230.184 168.394 C 229.746 167.956,222.722 168.021,221.895 168.470 M209.188 173.245 C 208.598 173.483,208.790 178.708,209.400 179.034 C 209.954 179.331,214.010 179.251,214.523 178.934 C 214.927 178.684,214.937 173.776,214.535 173.373 C 214.253 173.091,209.832 172.986,209.188 173.245 M168.465 183.250 C 165.739 183.870,165.683 184.098,165.558 195.258 C 165.390 210.250,164.888 209.577,176.052 209.321 C 183.306 209.155,182.808 210.116,182.809 196.302 C 182.810 182.134,183.444 183.185,174.867 183.127 C 171.737 183.106,168.856 183.161,168.465 183.250 M209.188 183.204 C 208.686 183.407,208.763 208.791,209.267 208.985 C 209.754 209.172,213.957 209.172,214.444 208.985 C 214.780 208.856,214.819 207.506,214.819 196.175 L 214.819 183.509 214.211 183.278 C 213.592 183.043,209.728 182.986,209.188 183.204 M231.581 183.343 C 231.218 183.613,231.212 183.748,231.520 184.825 C 231.706 185.477,232.138 187.131,232.480 188.500 C 232.822 189.870,233.248 191.470,233.428 192.057 C 233.608 192.644,233.878 193.817,234.029 194.665 C 234.180 195.513,234.392 196.313,234.499 196.443 C 234.607 196.574,234.818 197.374,234.969 198.222 C 235.120 199.069,235.397 200.243,235.585 200.830 C 237.706 207.455,237.821 209.756,236.295 215.049 C 236.090 215.762,235.922 216.612,235.922 216.938 C 235.922 217.263,235.745 217.992,235.530 218.557 C 234.989 219.972,235.210 220.118,238.061 220.233 C 241.132 220.356,241.694 219.694,242.194 215.366 C 242.272 214.689,242.494 213.759,242.686 213.299 C 242.878 212.840,243.035 212.167,243.034 211.804 C 243.034 211.441,243.238 210.397,243.488 209.484 C 243.738 208.571,244.226 206.704,244.573 205.335 C 244.920 203.966,245.400 202.098,245.639 201.186 C 246.092 199.458,246.365 198.364,247.089 195.376 C 247.909 191.990,248.428 190.039,248.665 189.449 C 248.796 189.123,248.983 188.269,249.079 187.552 C 249.175 186.835,249.365 186.037,249.501 185.779 C 250.676 183.548,250.233 183.047,247.084 183.047 C 244.349 183.047,243.983 183.188,243.983 184.242 C 243.983 184.587,243.825 185.392,243.632 186.032 C 243.439 186.672,243.168 188.050,243.030 189.093 C 242.892 190.136,242.637 191.363,242.463 191.820 C 242.289 192.276,242.072 193.360,241.981 194.229 C 241.833 195.652,240.831 199.793,240.574 200.051 C 240.421 200.203,240.224 199.470,239.988 197.866 C 239.710 195.984,239.078 192.664,238.513 190.116 C 238.261 188.984,238.056 187.755,238.056 187.385 C 238.056 186.379,237.200 183.489,236.834 183.257 C 236.322 182.932,232.041 183.003,231.581 183.343 M176.763 196.206 L 176.763 204.031 174.727 204.099 C 173.607 204.136,172.402 204.057,172.050 203.923 L 171.409 203.680 171.478 196.363 C 171.561 187.579,171.321 188.220,174.487 188.314 L 176.763 188.382 176.763 196.206 M198.407 195.021 C 198.486 202.946,198.554 202.557,196.974 203.299 C 194.882 204.281,194.541 204.298,193.712 203.470 L 192.984 202.742 193.054 196.001 C 193.139 187.759,192.954 188.212,196.191 188.314 L 198.340 188.382 198.407 195.021 " stroke="none" fill="#050505" fill-rule="evenodd"></path><path id="path1" d="M0.000 118.554 L 0.000 237.107 200.000 237.107 L 400.000 237.107 400.000 118.554 L 400.000 0.000 200.000 0.000 L 0.000 0.000 0.000 118.554 M238.403 19.931 C 240.224 20.199,241.824 20.504,241.960 20.611 C 242.095 20.717,242.632 20.941,243.154 21.109 C 244.289 21.475,246.867 22.852,247.998 23.696 C 252.646 27.168,255.546 31.333,257.005 36.636 L 257.736 39.291 257.736 85.157 L 257.736 131.023 257.128 133.384 C 256.027 137.660,254.161 140.930,251.075 143.990 C 249.313 145.738,248.402 146.465,246.117 147.948 C 245.071 148.628,242.706 149.548,240.377 150.183 L 238.110 150.800 192.531 150.800 L 146.952 150.800 144.685 150.183 C 142.357 149.548,139.992 148.628,138.945 147.948 C 136.620 146.439,135.746 145.736,133.961 143.941 C 130.815 140.777,129.063 137.705,127.939 133.380 L 127.327 131.023 127.327 85.195 L 127.327 39.368 128.053 36.698 C 129.524 31.286,132.282 27.304,137.065 23.689 C 137.953 23.017,141.498 21.103,141.853 21.103 C 141.975 21.103,142.424 20.937,142.851 20.734 C 145.394 19.527,146.025 19.511,192.175 19.477 C 234.293 19.446,235.154 19.454,238.403 19.931 M198.543 56.236 C 197.948 56.524,197.573 57.343,196.556 60.581 C 196.146 61.885,195.675 63.325,195.510 63.782 C 195.345 64.238,194.928 65.519,194.583 66.627 C 194.238 67.736,193.481 70.083,192.901 71.844 C 191.539 75.977,189.628 81.917,187.791 87.730 C 185.639 94.538,183.121 102.409,182.102 105.513 C 181.610 107.012,180.981 108.941,180.704 109.797 C 179.613 113.177,180.130 113.811,183.970 113.811 C 187.225 113.811,187.444 113.638,188.501 110.204 C 188.914 108.863,189.392 107.392,189.563 106.935 C 189.734 106.479,190.482 104.185,191.225 101.838 C 191.968 99.490,192.719 97.196,192.894 96.740 C 193.069 96.283,193.871 93.829,194.676 91.286 C 195.481 88.743,196.553 85.382,197.058 83.817 C 197.906 81.187,198.433 79.519,201.104 71.014 C 201.636 69.318,202.259 67.398,202.489 66.746 C 205.256 58.893,205.686 56.763,204.620 56.192 C 204.044 55.884,199.198 55.919,198.543 56.236 M175.720 68.933 C 175.407 68.992,173.380 70.027,171.215 71.232 C 166.609 73.797,164.887 74.738,162.300 76.107 C 161.257 76.659,160.243 77.248,160.047 77.417 C 159.852 77.586,159.318 77.894,158.862 78.102 C 154.621 80.031,152.818 81.308,152.489 82.614 C 151.392 86.973,152.006 87.894,158.269 91.275 C 160.486 92.471,162.460 93.544,162.656 93.658 C 162.851 93.771,164.025 94.421,165.264 95.101 C 166.503 95.781,169.300 97.335,171.480 98.554 C 177.151 101.725,177.772 101.539,177.542 96.737 C 177.376 93.284,177.829 93.698,169.648 89.511 C 159.434 84.282,159.624 84.510,163.723 82.379 C 176.440 75.768,176.678 75.633,177.138 74.771 C 177.948 73.255,177.393 68.573,176.430 68.793 C 176.353 68.811,176.033 68.874,175.720 68.933 M209.959 68.950 C 208.978 69.155,208.892 69.426,208.892 72.312 C 208.892 76.076,208.951 76.158,213.278 78.359 C 227.537 85.615,226.971 85.084,222.762 87.268 C 221.719 87.810,219.798 88.816,218.494 89.504 C 217.190 90.193,214.985 91.348,213.595 92.073 C 208.920 94.507,208.892 94.540,208.892 97.570 C 208.892 101.452,209.593 101.625,214.308 98.903 C 215.917 97.974,217.265 97.214,217.302 97.214 C 217.339 97.214,218.529 96.565,219.947 95.772 C 221.365 94.979,222.845 94.179,223.237 93.994 C 223.628 93.809,224.481 93.358,225.133 92.992 C 225.785 92.626,227.827 91.501,229.671 90.491 C 233.968 88.139,233.886 88.235,233.989 85.437 C 234.125 81.760,234.139 81.790,231.467 80.284 C 228.536 78.632,226.277 77.390,225.370 76.930 C 224.671 76.576,223.689 76.022,221.814 74.926 C 221.292 74.621,220.385 74.114,219.798 73.798 C 219.212 73.483,217.438 72.487,215.858 71.586 C 214.278 70.684,212.899 69.947,212.794 69.947 C 212.690 69.947,212.424 69.783,212.203 69.584 C 211.706 69.134,210.589 68.819,209.959 68.950 M159.903 163.742 C 159.983 163.948,160.047 165.850,160.047 167.969 C 160.047 172.200,160.109 172.008,158.388 173.160 C 158.062 173.379,157.138 174.012,156.336 174.568 C 155.534 175.123,153.888 176.256,152.678 177.084 C 145.786 181.804,146.111 181.466,147.496 182.468 C 148.027 182.851,148.587 183.272,148.741 183.403 C 148.896 183.533,149.769 184.142,150.682 184.756 C 151.595 185.369,153.195 186.470,154.238 187.201 C 155.282 187.932,156.722 188.916,157.439 189.386 C 158.156 189.857,159.037 190.510,159.395 190.838 L 160.047 191.434 160.047 195.633 C 160.047 200.649,160.130 200.550,157.458 198.731 C 156.376 197.994,155.245 197.232,154.945 197.036 C 153.113 195.844,150.185 193.805,150.062 193.636 C 149.981 193.526,149.706 193.313,149.450 193.162 C 148.981 192.885,147.745 192.090,146.914 191.529 C 146.668 191.363,146.188 191.009,145.847 190.742 C 145.507 190.476,143.961 189.409,142.412 188.371 C 135.381 183.662,136.100 184.430,136.100 181.623 C 136.100 179.028,136.080 179.062,138.471 177.581 C 139.188 177.137,139.916 176.638,140.088 176.472 C 140.260 176.306,140.486 176.171,140.589 176.171 C 140.746 176.171,141.362 175.736,142.857 174.569 C 142.988 174.467,143.628 174.042,144.280 173.624 C 144.932 173.206,145.578 172.770,145.715 172.655 C 145.852 172.540,146.439 172.145,147.019 171.778 C 149.322 170.321,149.976 169.881,150.110 169.699 C 150.186 169.595,150.582 169.328,150.988 169.106 C 151.394 168.884,152.558 168.122,153.575 167.414 C 159.613 163.207,159.683 163.167,159.903 163.742 M204.011 168.253 C 204.585 168.473,204.585 208.764,204.011 208.985 C 202.681 209.495,199.142 209.128,198.488 208.411 L 197.832 207.693 196.308 208.054 C 195.470 208.253,194.357 208.572,193.835 208.762 C 191.301 209.686,188.705 208.784,187.734 206.641 C 187.207 205.478,187.195 205.252,187.125 195.762 L 187.053 186.071 187.635 185.192 C 188.587 183.754,190.400 183.211,194.784 183.055 L 198.340 182.928 198.401 175.815 C 198.455 169.465,198.505 168.670,198.861 168.405 C 199.276 168.098,203.297 167.979,204.011 168.253 M230.184 168.394 C 230.358 168.568,230.468 169.421,230.468 170.599 C 230.468 173.000,230.383 173.088,228.054 173.088 C 225.786 173.088,225.925 172.718,226.014 178.542 L 226.082 182.928 227.504 182.989 C 230.119 183.101,229.994 182.975,229.994 185.512 C 229.994 188.161,229.951 188.215,227.732 188.311 L 226.082 188.382 225.963 198.696 L 225.845 209.010 222.999 209.010 L 220.154 209.010 220.036 198.716 L 219.917 188.422 218.850 188.165 L 217.783 187.908 217.714 185.795 C 217.637 183.448,217.719 183.277,219.016 183.067 L 219.917 182.921 220.036 176.760 C 220.202 168.122,220.193 168.134,226.212 168.119 C 228.775 168.112,229.986 168.196,230.184 168.394 M214.535 173.373 C 214.937 173.776,214.927 178.684,214.523 178.934 C 214.010 179.251,209.954 179.331,209.400 179.034 C 208.790 178.708,208.598 173.483,209.188 173.245 C 209.832 172.986,214.253 173.091,214.535 173.373 M181.336 183.749 C 182.835 184.874,182.810 184.662,182.809 196.302 C 182.808 210.116,183.306 209.155,176.052 209.321 C 164.888 209.577,165.390 210.250,165.558 195.258 C 165.704 182.234,165.070 183.060,174.867 183.127 C 180.516 183.165,180.563 183.170,181.336 183.749 M214.211 183.278 L 214.819 183.509 214.819 196.175 C 214.819 207.506,214.780 208.856,214.444 208.985 C 213.957 209.172,209.754 209.172,209.267 208.985 C 208.763 208.791,208.686 183.407,209.188 183.204 C 209.728 182.986,213.592 183.043,214.211 183.278 M236.834 183.257 C 237.200 183.489,238.056 186.379,238.056 187.385 C 238.056 187.755,238.261 188.984,238.513 190.116 C 239.078 192.664,239.710 195.984,239.988 197.866 C 240.224 199.470,240.421 200.203,240.574 200.051 C 240.831 199.793,241.833 195.652,241.981 194.229 C 242.072 193.360,242.289 192.276,242.463 191.820 C 242.637 191.363,242.892 190.136,243.030 189.093 C 243.168 188.050,243.439 186.672,243.632 186.032 C 243.825 185.392,243.983 184.587,243.983 184.242 C 243.983 183.188,244.349 183.047,247.084 183.047 C 250.233 183.047,250.676 183.548,249.501 185.779 C 249.365 186.037,249.175 186.835,249.079 187.552 C 248.983 188.269,248.796 189.123,248.665 189.449 C 248.428 190.039,247.909 191.990,247.089 195.376 C 246.365 198.364,246.092 199.458,245.639 201.186 C 245.400 202.098,244.920 203.966,244.573 205.335 C 244.226 206.704,243.738 208.571,243.488 209.484 C 243.238 210.397,243.034 211.441,243.034 211.804 C 243.035 212.167,242.878 212.840,242.686 213.299 C 242.494 213.759,242.272 214.689,242.194 215.366 C 241.694 219.694,241.132 220.356,238.061 220.233 C 235.210 220.118,234.989 219.972,235.530 218.557 C 235.745 217.992,235.922 217.263,235.922 216.938 C 235.922 216.612,236.090 215.762,236.295 215.049 C 237.821 209.756,237.706 207.455,235.585 200.830 C 235.397 200.243,235.120 199.069,234.969 198.222 C 234.818 197.374,234.607 196.574,234.499 196.443 C 234.392 196.313,234.180 195.513,234.029 194.665 C 233.878 193.817,233.608 192.644,233.428 192.057 C 233.248 191.470,232.822 189.870,232.480 188.500 C 232.138 187.131,231.706 185.477,231.520 184.825 C 231.212 183.748,231.218 183.613,231.581 183.343 C 232.041 183.003,236.322 182.932,236.834 183.257 M171.879 188.647 C 171.614 188.966,171.533 190.515,171.478 196.363 L 171.409 203.680 172.050 203.923 C 172.402 204.057,173.607 204.136,174.727 204.099 L 176.763 204.031 176.763 196.206 L 176.763 188.382 174.487 188.314 C 172.587 188.258,172.157 188.313,171.879 188.647 M193.583 188.754 C 193.155 189.226,193.119 189.722,193.054 196.001 L 192.984 202.742 193.712 203.470 C 194.541 204.298,194.882 204.281,196.974 203.299 C 198.554 202.557,198.486 202.946,198.407 195.021 L 198.340 188.382 196.191 188.314 C 194.250 188.253,193.998 188.296,193.583 188.754 " stroke="none" fill="#fbfbfb" fill-rule="evenodd"></path></g></svg>