<svg id="svg" xmlns="http://www.w3.org/2000/svg" xmlns:xlink="http://www.w3.org/1999/xlink" width="400" height="400" viewBox="0, 0, 400,400"><g id="svgg"><path id="path0" d="M0.000 200.000 L 0.000 400.000 200.000 400.000 L 400.000 400.000 400.000 200.000 L 400.000 0.000 200.000 0.000 L 0.000 0.000 0.000 200.000 M331.600 11.352 C 361.177 16.468,381.170 36.079,386.703 65.400 C 387.538 69.829,388.021 315.952,387.215 326.747 C 384.917 357.533,363.348 381.282,332.800 386.661 C 326.515 387.767,73.724 387.819,67.595 386.715 C 40.618 381.855,20.464 363.017,14.407 337.000 C 12.749 329.882,12.759 330.753,12.892 196.400 L 13.020 67.000 13.932 63.000 C 20.730 33.189,41.886 14.447,72.800 10.848 C 79.494 10.068,326.967 10.551,331.600 11.352 M220.400 115.394 C 215.921 116.836,214.272 119.637,209.877 133.268 C 205.081 148.138,192.785 186.407,187.342 203.400 C 184.594 211.980,181.199 222.510,179.798 226.800 C 164.044 275.045,164.030 275.096,166.458 278.183 C 169.648 282.238,180.292 282.328,184.622 278.337 C 187.044 276.104,187.675 274.582,192.801 258.600 C 197.995 242.404,202.594 228.112,207.797 212.000 C 209.821 205.730,215.401 188.360,220.196 173.400 C 224.990 158.440,230.422 141.520,232.267 135.800 C 236.995 121.136,237.047 118.453,232.653 115.955 C 230.562 114.767,223.370 114.437,220.400 115.394 M148.600 153.742 C 146.322 154.488,144.178 155.638,108.400 175.309 C 85.241 188.043,84.400 188.824,84.400 197.622 C 84.400 206.483,85.835 207.953,104.472 218.195 C 110.922 221.740,121.690 227.683,128.400 231.401 C 149.164 242.908,150.657 243.520,153.808 241.824 C 157.385 239.897,158.393 231.012,155.664 225.469 C 153.729 221.538,152.045 220.406,134.874 211.491 C 112.916 200.091,112.800 200.014,112.800 196.788 C 112.800 193.770,114.640 192.452,130.617 184.027 C 156.000 170.643,156.915 169.863,156.956 161.600 C 156.988 155.181,153.686 152.077,148.600 153.742 M251.417 153.475 C 246.317 154.881,245.241 166.320,249.638 172.389 C 251.297 174.679,254.377 176.552,268.400 183.800 C 290.127 195.028,291.603 195.988,291.597 198.885 C 291.592 201.785,289.926 203.143,279.800 208.498 C 251.895 223.257,251.359 223.574,249.355 226.466 C 246.097 231.166,246.488 239.361,250.077 241.614 C 253.592 243.820,250.898 245.098,302.400 216.799 C 318.210 208.112,319.710 206.482,319.690 198.000 C 319.670 189.767,317.815 187.602,304.600 180.396 C 300.860 178.356,293.840 174.492,289.000 171.809 C 253.739 152.260,254.490 152.627,251.417 153.475 " stroke="none" fill="#f6f6f6" fill-rule="evenodd"></path><path id="path1" d="M72.800 10.848 C 41.886 14.447,20.730 33.189,13.932 63.000 L 13.020 67.000 12.892 196.400 C 12.759 330.753,12.749 329.882,14.407 337.000 C 20.464 363.017,40.618 381.855,67.595 386.715 C 73.724 387.819,326.515 387.767,332.800 386.661 C 363.348 381.282,384.917 357.533,387.215 326.747 C 388.021 315.952,387.538 69.829,386.703 65.400 C 381.170 36.079,361.177 16.468,331.600 11.352 C 326.967 10.551,79.494 10.068,72.800 10.848 M232.653 115.955 C 237.047 118.453,236.995 121.136,232.267 135.800 C 230.422 141.520,224.990 158.440,220.196 173.400 C 215.401 188.360,209.821 205.730,207.797 212.000 C 202.594 228.112,197.995 242.404,192.801 258.600 C 187.675 274.582,187.044 276.104,184.622 278.337 C 180.292 282.328,169.648 282.238,166.458 278.183 C 164.030 275.096,164.044 275.045,179.798 226.800 C 181.199 222.510,184.594 211.980,187.342 203.400 C 192.785 186.407,205.081 148.138,209.877 133.268 C 215.314 116.407,216.876 114.692,226.600 114.915 C 230.369 115.001,231.237 115.150,232.653 115.955 M154.251 154.270 C 157.025 156.088,157.953 162.684,156.047 167.037 C 154.133 171.411,152.596 172.437,130.617 184.027 C 114.640 192.452,112.800 193.770,112.800 196.788 C 112.800 200.014,112.916 200.091,134.874 211.491 C 152.045 220.406,153.729 221.538,155.664 225.469 C 158.393 231.012,157.385 239.897,153.808 241.824 C 150.657 243.520,149.164 242.908,128.400 231.401 C 121.690 227.683,110.922 221.740,104.472 218.195 C 85.835 207.953,84.400 206.483,84.400 197.622 C 84.400 188.824,85.241 188.043,108.400 175.309 C 126.949 165.111,143.887 155.854,145.600 154.980 C 149.205 153.140,152.157 152.898,154.251 154.270 M257.600 154.642 C 259.629 155.569,265.219 158.625,289.000 171.809 C 293.840 174.492,300.860 178.356,304.600 180.396 C 317.815 187.602,319.670 189.767,319.690 198.000 C 319.710 206.482,318.210 208.112,302.400 216.799 C 250.898 245.098,253.592 243.820,250.077 241.614 C 246.488 239.361,246.097 231.166,249.355 226.466 C 251.359 223.574,251.895 223.257,279.800 208.498 C 289.926 203.143,291.592 201.785,291.597 198.885 C 291.603 195.988,290.127 195.028,268.400 183.800 C 248.122 173.320,247.037 172.239,247.059 162.562 C 247.079 154.129,250.631 151.460,257.600 154.642 " stroke="none" fill="#040404" fill-rule="evenodd"></path></g></svg>